<svg xmlns="http://www.w3.org/2000/svg" width="886" height="35" viewBox="0 0 886 35">
    <defs>
        <clipPath id="clip-path">
            <path id="Rectangle_9139" fill="#fff" stroke="#707070" d="M0 0H886V35H0z" transform="translate(288 521)"/>
        </clipPath>
        <clipPath id="clip-path-2">
            <path fill="none" d="M0 0H903.907V36.371H0z"/>
        </clipPath>
        <style>
            .cls-5{fill:none;stroke:#ddd}
        </style>
    </defs>
    <g id="Mask_Group_4763" clip-path="url(#clip-path)" transform="translate(-288 -521)">
        <g id="Repeat_Grid_9" clip-path="url(#clip-path-2)" transform="translate(270.045 520.88)">
            <g transform="translate(-295.045 -519.88)">
                <path id="Path_13398" d="M3565.476-12971.867l21.045 35.865" class="cls-5" transform="translate(-3269 13491)"/>
            </g>
            <g transform="translate(-286.045 -519.88)">
                <path id="Path_13398-2" d="M3565.476-12971.867l21.045 35.865" class="cls-5" transform="translate(-3269 13491)"/>
            </g>
            <g transform="translate(-277.045 -519.88)">
                <path id="Path_13398-3" d="M3565.476-12971.867l21.045 35.865" class="cls-5" transform="translate(-3269 13491)"/>
            </g>
            <g transform="translate(-268.045 -519.88)">
                <path id="Path_13398-4" d="M3565.476-12971.867l21.045 35.865" class="cls-5" transform="translate(-3269 13491)"/>
            </g>
            <g transform="translate(-259.045 -519.88)">
                <path id="Path_13398-5" d="M3565.476-12971.867l21.045 35.865" class="cls-5" transform="translate(-3269 13491)"/>
            </g>
            <g transform="translate(-250.045 -519.88)">
                <path id="Path_13398-6" d="M3565.476-12971.867l21.045 35.865" class="cls-5" transform="translate(-3269 13491)"/>
            </g>
            <g transform="translate(-241.045 -519.88)">
                <path id="Path_13398-7" d="M3565.476-12971.867l21.045 35.865" class="cls-5" transform="translate(-3269 13491)"/>
            </g>
            <g transform="translate(-232.045 -519.88)">
                <path id="Path_13398-8" d="M3565.476-12971.867l21.045 35.865" class="cls-5" transform="translate(-3269 13491)"/>
            </g>
            <g transform="translate(-223.045 -519.88)">
                <path id="Path_13398-9" d="M3565.476-12971.867l21.045 35.865" class="cls-5" transform="translate(-3269 13491)"/>
            </g>
            <g transform="translate(-214.045 -519.88)">
                <path id="Path_13398-10" d="M3565.476-12971.867l21.045 35.865" class="cls-5" transform="translate(-3269 13491)"/>
            </g>
            <g transform="translate(-205.045 -519.88)">
                <path id="Path_13398-11" d="M3565.476-12971.867l21.045 35.865" class="cls-5" transform="translate(-3269 13491)"/>
            </g>
            <g transform="translate(-196.045 -519.88)">
                <path id="Path_13398-12" d="M3565.476-12971.867l21.045 35.865" class="cls-5" transform="translate(-3269 13491)"/>
            </g>
            <g transform="translate(-187.045 -519.88)">
                <path id="Path_13398-13" d="M3565.476-12971.867l21.045 35.865" class="cls-5" transform="translate(-3269 13491)"/>
            </g>
            <g transform="translate(-178.045 -519.88)">
                <path id="Path_13398-14" d="M3565.476-12971.867l21.045 35.865" class="cls-5" transform="translate(-3269 13491)"/>
            </g>
            <g transform="translate(-169.045 -519.88)">
                <path id="Path_13398-15" d="M3565.476-12971.867l21.045 35.865" class="cls-5" transform="translate(-3269 13491)"/>
            </g>
            <g transform="translate(-160.045 -519.88)">
                <path id="Path_13398-16" d="M3565.476-12971.867l21.045 35.865" class="cls-5" transform="translate(-3269 13491)"/>
            </g>
            <g transform="translate(-151.045 -519.88)">
                <path id="Path_13398-17" d="M3565.476-12971.867l21.045 35.865" class="cls-5" transform="translate(-3269 13491)"/>
            </g>
            <g transform="translate(-142.045 -519.88)">
                <path id="Path_13398-18" d="M3565.476-12971.867l21.045 35.865" class="cls-5" transform="translate(-3269 13491)"/>
            </g>
            <g transform="translate(-133.045 -519.88)">
                <path id="Path_13398-19" d="M3565.476-12971.867l21.045 35.865" class="cls-5" transform="translate(-3269 13491)"/>
            </g>
            <g transform="translate(-124.045 -519.88)">
                <path id="Path_13398-20" d="M3565.476-12971.867l21.045 35.865" class="cls-5" transform="translate(-3269 13491)"/>
            </g>
            <g transform="translate(-115.045 -519.88)">
                <path id="Path_13398-21" d="M3565.476-12971.867l21.045 35.865" class="cls-5" transform="translate(-3269 13491)"/>
            </g>
            <g transform="translate(-106.045 -519.88)">
                <path id="Path_13398-22" d="M3565.476-12971.867l21.045 35.865" class="cls-5" transform="translate(-3269 13491)"/>
            </g>
            <g transform="translate(-97.045 -519.88)">
                <path id="Path_13398-23" d="M3565.476-12971.867l21.045 35.865" class="cls-5" transform="translate(-3269 13491)"/>
            </g>
            <g transform="translate(-88.045 -519.88)">
                <path id="Path_13398-24" d="M3565.476-12971.867l21.045 35.865" class="cls-5" transform="translate(-3269 13491)"/>
            </g>
            <g transform="translate(-79.045 -519.88)">
                <path id="Path_13398-25" d="M3565.476-12971.867l21.045 35.865" class="cls-5" transform="translate(-3269 13491)"/>
            </g>
            <g transform="translate(-70.045 -519.88)">
                <path id="Path_13398-26" d="M3565.476-12971.867l21.045 35.865" class="cls-5" transform="translate(-3269 13491)"/>
            </g>
            <g transform="translate(-61.045 -519.88)">
                <path id="Path_13398-27" d="M3565.476-12971.867l21.045 35.865" class="cls-5" transform="translate(-3269 13491)"/>
            </g>
            <g transform="translate(-52.045 -519.88)">
                <path id="Path_13398-28" d="M3565.476-12971.867l21.045 35.865" class="cls-5" transform="translate(-3269 13491)"/>
            </g>
            <g transform="translate(-43.045 -519.88)">
                <path id="Path_13398-29" d="M3565.476-12971.867l21.045 35.865" class="cls-5" transform="translate(-3269 13491)"/>
            </g>
            <g transform="translate(-34.045 -519.88)">
                <path id="Path_13398-30" d="M3565.476-12971.867l21.045 35.865" class="cls-5" transform="translate(-3269 13491)"/>
            </g>
            <g transform="translate(-25.045 -519.88)">
                <path id="Path_13398-31" d="M3565.476-12971.867l21.045 35.865" class="cls-5" transform="translate(-3269 13491)"/>
            </g>
            <g transform="translate(-16.045 -519.88)">
                <path id="Path_13398-32" d="M3565.476-12971.867l21.045 35.865" class="cls-5" transform="translate(-3269 13491)"/>
            </g>
            <g transform="translate(-7.045 -519.88)">
                <path id="Path_13398-33" d="M3565.476-12971.867l21.045 35.865" class="cls-5" transform="translate(-3269 13491)"/>
            </g>
            <g transform="translate(1.955 -519.88)">
                <path id="Path_13398-34" d="M3565.476-12971.867l21.045 35.865" class="cls-5" transform="translate(-3269 13491)"/>
            </g>
            <g transform="translate(10.955 -519.88)">
                <path id="Path_13398-35" d="M3565.476-12971.867l21.045 35.865" class="cls-5" transform="translate(-3269 13491)"/>
            </g>
            <g transform="translate(19.955 -519.88)">
                <path id="Path_13398-36" d="M3565.476-12971.867l21.045 35.865" class="cls-5" transform="translate(-3269 13491)"/>
            </g>
            <g transform="translate(28.955 -519.88)">
                <path id="Path_13398-37" d="M3565.476-12971.867l21.045 35.865" class="cls-5" transform="translate(-3269 13491)"/>
            </g>
            <g transform="translate(37.955 -519.88)">
                <path id="Path_13398-38" d="M3565.476-12971.867l21.045 35.865" class="cls-5" transform="translate(-3269 13491)"/>
            </g>
            <g transform="translate(46.955 -519.88)">
                <path id="Path_13398-39" d="M3565.476-12971.867l21.045 35.865" class="cls-5" transform="translate(-3269 13491)"/>
            </g>
            <g transform="translate(55.955 -519.88)">
                <path id="Path_13398-40" d="M3565.476-12971.867l21.045 35.865" class="cls-5" transform="translate(-3269 13491)"/>
            </g>
            <g transform="translate(64.955 -519.88)">
                <path id="Path_13398-41" d="M3565.476-12971.867l21.045 35.865" class="cls-5" transform="translate(-3269 13491)"/>
            </g>
            <g transform="translate(73.955 -519.88)">
                <path id="Path_13398-42" d="M3565.476-12971.867l21.045 35.865" class="cls-5" transform="translate(-3269 13491)"/>
            </g>
            <g transform="translate(82.955 -519.88)">
                <path id="Path_13398-43" d="M3565.476-12971.867l21.045 35.865" class="cls-5" transform="translate(-3269 13491)"/>
            </g>
            <g transform="translate(91.955 -519.88)">
                <path id="Path_13398-44" d="M3565.476-12971.867l21.045 35.865" class="cls-5" transform="translate(-3269 13491)"/>
            </g>
            <g transform="translate(100.955 -519.88)">
                <path id="Path_13398-45" d="M3565.476-12971.867l21.045 35.865" class="cls-5" transform="translate(-3269 13491)"/>
            </g>
            <g transform="translate(109.955 -519.88)">
                <path id="Path_13398-46" d="M3565.476-12971.867l21.045 35.865" class="cls-5" transform="translate(-3269 13491)"/>
            </g>
            <g transform="translate(118.955 -519.88)">
                <path id="Path_13398-47" d="M3565.476-12971.867l21.045 35.865" class="cls-5" transform="translate(-3269 13491)"/>
            </g>
            <g transform="translate(127.955 -519.88)">
                <path id="Path_13398-48" d="M3565.476-12971.867l21.045 35.865" class="cls-5" transform="translate(-3269 13491)"/>
            </g>
            <g transform="translate(136.955 -519.88)">
                <path id="Path_13398-49" d="M3565.476-12971.867l21.045 35.865" class="cls-5" transform="translate(-3269 13491)"/>
            </g>
            <g transform="translate(145.955 -519.88)">
                <path id="Path_13398-50" d="M3565.476-12971.867l21.045 35.865" class="cls-5" transform="translate(-3269 13491)"/>
            </g>
            <g transform="translate(154.955 -519.88)">
                <path id="Path_13398-51" d="M3565.476-12971.867l21.045 35.865" class="cls-5" transform="translate(-3269 13491)"/>
            </g>
            <g transform="translate(163.955 -519.88)">
                <path id="Path_13398-52" d="M3565.476-12971.867l21.045 35.865" class="cls-5" transform="translate(-3269 13491)"/>
            </g>
            <g transform="translate(172.955 -519.88)">
                <path id="Path_13398-53" d="M3565.476-12971.867l21.045 35.865" class="cls-5" transform="translate(-3269 13491)"/>
            </g>
            <g transform="translate(181.955 -519.88)">
                <path id="Path_13398-54" d="M3565.476-12971.867l21.045 35.865" class="cls-5" transform="translate(-3269 13491)"/>
            </g>
            <g transform="translate(190.955 -519.88)">
                <path id="Path_13398-55" d="M3565.476-12971.867l21.045 35.865" class="cls-5" transform="translate(-3269 13491)"/>
            </g>
            <g transform="translate(199.955 -519.88)">
                <path id="Path_13398-56" d="M3565.476-12971.867l21.045 35.865" class="cls-5" transform="translate(-3269 13491)"/>
            </g>
            <g transform="translate(208.955 -519.88)">
                <path id="Path_13398-57" d="M3565.476-12971.867l21.045 35.865" class="cls-5" transform="translate(-3269 13491)"/>
            </g>
            <g transform="translate(217.955 -519.88)">
                <path id="Path_13398-58" d="M3565.476-12971.867l21.045 35.865" class="cls-5" transform="translate(-3269 13491)"/>
            </g>
            <g transform="translate(226.955 -519.88)">
                <path id="Path_13398-59" d="M3565.476-12971.867l21.045 35.865" class="cls-5" transform="translate(-3269 13491)"/>
            </g>
            <g transform="translate(235.955 -519.88)">
                <path id="Path_13398-60" d="M3565.476-12971.867l21.045 35.865" class="cls-5" transform="translate(-3269 13491)"/>
            </g>
            <g transform="translate(244.955 -519.88)">
                <path id="Path_13398-61" d="M3565.476-12971.867l21.045 35.865" class="cls-5" transform="translate(-3269 13491)"/>
            </g>
            <g transform="translate(253.955 -519.88)">
                <path id="Path_13398-62" d="M3565.476-12971.867l21.045 35.865" class="cls-5" transform="translate(-3269 13491)"/>
            </g>
            <g transform="translate(262.955 -519.88)">
                <path id="Path_13398-63" d="M3565.476-12971.867l21.045 35.865" class="cls-5" transform="translate(-3269 13491)"/>
            </g>
            <g transform="translate(271.955 -519.88)">
                <path id="Path_13398-64" d="M3565.476-12971.867l21.045 35.865" class="cls-5" transform="translate(-3269 13491)"/>
            </g>
            <g transform="translate(280.955 -519.88)">
                <path id="Path_13398-65" d="M3565.476-12971.867l21.045 35.865" class="cls-5" transform="translate(-3269 13491)"/>
            </g>
            <g transform="translate(289.955 -519.88)">
                <path id="Path_13398-66" d="M3565.476-12971.867l21.045 35.865" class="cls-5" transform="translate(-3269 13491)"/>
            </g>
            <g transform="translate(298.955 -519.88)">
                <path id="Path_13398-67" d="M3565.476-12971.867l21.045 35.865" class="cls-5" transform="translate(-3269 13491)"/>
            </g>
            <g transform="translate(307.955 -519.88)">
                <path id="Path_13398-68" d="M3565.476-12971.867l21.045 35.865" class="cls-5" transform="translate(-3269 13491)"/>
            </g>
            <g transform="translate(316.955 -519.88)">
                <path id="Path_13398-69" d="M3565.476-12971.867l21.045 35.865" class="cls-5" transform="translate(-3269 13491)"/>
            </g>
            <g transform="translate(325.955 -519.88)">
                <path id="Path_13398-70" d="M3565.476-12971.867l21.045 35.865" class="cls-5" transform="translate(-3269 13491)"/>
            </g>
            <g transform="translate(334.955 -519.88)">
                <path id="Path_13398-71" d="M3565.476-12971.867l21.045 35.865" class="cls-5" transform="translate(-3269 13491)"/>
            </g>
            <g transform="translate(343.955 -519.88)">
                <path id="Path_13398-72" d="M3565.476-12971.867l21.045 35.865" class="cls-5" transform="translate(-3269 13491)"/>
            </g>
            <g transform="translate(352.955 -519.88)">
                <path id="Path_13398-73" d="M3565.476-12971.867l21.045 35.865" class="cls-5" transform="translate(-3269 13491)"/>
            </g>
            <g transform="translate(361.955 -519.88)">
                <path id="Path_13398-74" d="M3565.476-12971.867l21.045 35.865" class="cls-5" transform="translate(-3269 13491)"/>
            </g>
            <g transform="translate(370.955 -519.88)">
                <path id="Path_13398-75" d="M3565.476-12971.867l21.045 35.865" class="cls-5" transform="translate(-3269 13491)"/>
            </g>
            <g transform="translate(379.955 -519.88)">
                <path id="Path_13398-76" d="M3565.476-12971.867l21.045 35.865" class="cls-5" transform="translate(-3269 13491)"/>
            </g>
            <g transform="translate(388.955 -519.88)">
                <path id="Path_13398-77" d="M3565.476-12971.867l21.045 35.865" class="cls-5" transform="translate(-3269 13491)"/>
            </g>
            <g transform="translate(397.955 -519.88)">
                <path id="Path_13398-78" d="M3565.476-12971.867l21.045 35.865" class="cls-5" transform="translate(-3269 13491)"/>
            </g>
            <g transform="translate(406.955 -519.88)">
                <path id="Path_13398-79" d="M3565.476-12971.867l21.045 35.865" class="cls-5" transform="translate(-3269 13491)"/>
            </g>
            <g transform="translate(415.955 -519.88)">
                <path id="Path_13398-80" d="M3565.476-12971.867l21.045 35.865" class="cls-5" transform="translate(-3269 13491)"/>
            </g>
            <g transform="translate(424.955 -519.88)">
                <path id="Path_13398-81" d="M3565.476-12971.867l21.045 35.865" class="cls-5" transform="translate(-3269 13491)"/>
            </g>
            <g transform="translate(433.955 -519.88)">
                <path id="Path_13398-82" d="M3565.476-12971.867l21.045 35.865" class="cls-5" transform="translate(-3269 13491)"/>
            </g>
            <g transform="translate(442.955 -519.88)">
                <path id="Path_13398-83" d="M3565.476-12971.867l21.045 35.865" class="cls-5" transform="translate(-3269 13491)"/>
            </g>
            <g transform="translate(451.955 -519.88)">
                <path id="Path_13398-84" d="M3565.476-12971.867l21.045 35.865" class="cls-5" transform="translate(-3269 13491)"/>
            </g>
            <g transform="translate(460.955 -519.88)">
                <path id="Path_13398-85" d="M3565.476-12971.867l21.045 35.865" class="cls-5" transform="translate(-3269 13491)"/>
            </g>
            <g transform="translate(469.955 -519.88)">
                <path id="Path_13398-86" d="M3565.476-12971.867l21.045 35.865" class="cls-5" transform="translate(-3269 13491)"/>
            </g>
            <g transform="translate(478.955 -519.88)">
                <path id="Path_13398-87" d="M3565.476-12971.867l21.045 35.865" class="cls-5" transform="translate(-3269 13491)"/>
            </g>
            <g transform="translate(487.955 -519.88)">
                <path id="Path_13398-88" d="M3565.476-12971.867l21.045 35.865" class="cls-5" transform="translate(-3269 13491)"/>
            </g>
            <g transform="translate(496.955 -519.88)">
                <path id="Path_13398-89" d="M3565.476-12971.867l21.045 35.865" class="cls-5" transform="translate(-3269 13491)"/>
            </g>
            <g transform="translate(505.955 -519.88)">
                <path id="Path_13398-90" d="M3565.476-12971.867l21.045 35.865" class="cls-5" transform="translate(-3269 13491)"/>
            </g>
            <g transform="translate(514.955 -519.88)">
                <path id="Path_13398-91" d="M3565.476-12971.867l21.045 35.865" class="cls-5" transform="translate(-3269 13491)"/>
            </g>
            <g transform="translate(523.955 -519.88)">
                <path id="Path_13398-92" d="M3565.476-12971.867l21.045 35.865" class="cls-5" transform="translate(-3269 13491)"/>
            </g>
            <g transform="translate(532.955 -519.88)">
                <path id="Path_13398-93" d="M3565.476-12971.867l21.045 35.865" class="cls-5" transform="translate(-3269 13491)"/>
            </g>
            <g transform="translate(541.955 -519.88)">
                <path id="Path_13398-94" d="M3565.476-12971.867l21.045 35.865" class="cls-5" transform="translate(-3269 13491)"/>
            </g>
            <g transform="translate(550.955 -519.88)">
                <path id="Path_13398-95" d="M3565.476-12971.867l21.045 35.865" class="cls-5" transform="translate(-3269 13491)"/>
            </g>
            <g transform="translate(559.955 -519.88)">
                <path id="Path_13398-96" d="M3565.476-12971.867l21.045 35.865" class="cls-5" transform="translate(-3269 13491)"/>
            </g>
            <g transform="translate(568.955 -519.88)">
                <path id="Path_13398-97" d="M3565.476-12971.867l21.045 35.865" class="cls-5" transform="translate(-3269 13491)"/>
            </g>
            <g transform="translate(577.955 -519.88)">
                <path id="Path_13398-98" d="M3565.476-12971.867l21.045 35.865" class="cls-5" transform="translate(-3269 13491)"/>
            </g>
            <g transform="translate(586.955 -519.88)">
                <path id="Path_13398-99" d="M3565.476-12971.867l21.045 35.865" class="cls-5" transform="translate(-3269 13491)"/>
            </g>
            <g transform="translate(595.955 -519.88)">
                <path id="Path_13398-100" d="M3565.476-12971.867l21.045 35.865" class="cls-5" transform="translate(-3269 13491)"/>
            </g>
            <g transform="translate(604.955 -519.88)">
                <path id="Path_13398-101" d="M3565.476-12971.867l21.045 35.865" class="cls-5" transform="translate(-3269 13491)"/>
            </g>
        </g>
    </g>
</svg>
